# xmcd CD database file
#
# Track frame offsets:
#	150
#	15767
#	47165
#	75542
#	99688
#	128922
#	151044
#	175284
#	202706
#	214860
#	237427
#	244380
#	258841
#	285515
#	311974
#
# Disc length: 4574 seconds
#
# Revision: 1
# Processed by: cddbd v1.5.2PL0 Copyright (c) Steve Scherf et al.
# Submitted via: CDex 1.51
#
DISCID=c311dc0f
DTITLE=Various Artist - so right! CAM Jazz Label Sampler
DYEAR=2006
DGENRE=Jazz
TTITLE0=John Taylor - Escapade
TTITLE1=Oregon - If
TTITLE2=Jim Hall, Enrico Pieranunzi - Dreamlogue
TTITLE3=Maria Pia De Vito - So Right
TTITLE4=John Taylor - In Cologne
TTITLE5=Antonio Faraò, Miroslav Vitous, Daniel Humair - Oedipus
TTITLE6=Martial Solal, Dave Douglas - July Shower
TTITLE7=Javier Girotto, Ed Simon, Ben Street, Jeff Ballard - Wrong Way
TTITLE8=Antonello Salis - Hola
TTITLE9=Francesco Cafiso - Louisiana
TTITLE10=Roberto Bellatalla, Giovanni Maier, Michele Rabbia - Bows' Wind
TTITLE11=The Crew - The Rendez-Vous
TTITLE12=Kenny Wheeler - Never Always
TTITLE13=Enrico Pieranunzi, Marc Johnson, Joey Baron - Sundays
TTITLE14=Diego Urcola - Tango Azul
EXTD=YEAR: 2006
EXTT0=
EXTT1=
EXTT2=
EXTT3=
EXTT4=
EXTT5=
EXTT6=
EXTT7=
EXTT8=
EXTT9=
EXTT10=
EXTT11=
EXTT12=
EXTT13=
EXTT14=
PLAYORDER=
